<svg width="16" height="14" viewBox="0 0 16 14" fill="none" xmlns="http://www.w3.org/2000/svg">
<path d="M13.3671 2.03889V2.53889H13.8671H15.0411V6.74989H13.8671H13.3671V7.24989V8.42389H12.1661H11.6661V8.92389V10.1249H10.4921H9.99208V10.6249V11.7989H8.79108H8.29108V12.2989V13.4999H7.45508V12.2989V11.7989H6.95508H5.78108V10.6249V10.1249H5.28108H4.08008V8.92389V8.42389H3.58008H2.40608V7.24989V6.74989H1.90608H0.705078V2.53889H1.90608H2.40608V2.03889V0.837891H4.91608V2.03889V2.53889H5.41608H6.61708V3.71289V4.21289H7.11708H8.65608H9.15608V3.71289V2.53889H10.3301H10.8301V2.03889V0.837891H13.3671V2.03889Z" fill="#15FFF1" stroke="#15FFF1"/>
</svg>
