<svg width="137" height="203" viewBox="0 0 137 203" fill="none" xmlns="http://www.w3.org/2000/svg">
<g clip-path="url(#clip0)">
<path d="M37.3604 140.21L30.6404 117.63L18.4504 97.56L16.6104 78.77L17.9904 53.9701L23.5104 37.0201L37.3604 22.63L49.1304 16.61L67.4604 8.30005L91.3304 13.84H99.6404H103.79L105.86 16.61L107.25 17.99L111.4 21.45L112.78 23.52L116.24 26.98L121.09 31.83L123.16 34.6L128 46.3601L129.39 49.1301L131.47 51.89L129.39 88.57L128 95.48L124.55 103.79L120.99 105.52L119.7 108.63L116.24 119.01L112.63 121.77L109.32 128L104.48 130.08L103.1 132.85L103.79 140.46L91.3304 144.61L82.3403 141.5L37.3604 140.21Z" fill="#0B5D58"/>
<path d="M96.8597 145.3H48.4297V153.55H96.8597V145.3Z" fill="#0B5D58"/>
<path d="M105.86 161.91H40.8203V170.16H105.86V161.91Z" fill="#0B5D58"/>
<path d="M113.47 170.21H48.4297V178.46H113.47V170.21Z" fill="#15FFF1"/>
<path d="M113.47 153.61H48.4297V161.86H113.47V153.61Z" fill="#15FFF1"/>
<path d="M105.17 137H39.4404V145.25H105.17V137Z" fill="#15FFF1"/>
<path d="M89.2497 0H48.4297V8.25H89.2497V0Z" fill="#15FFF1"/>
<path d="M49.1295 8.30005H32.5195V16.55H49.1295V8.30005Z" fill="#15FFF1"/>
<path d="M33.2102 15.9099H24.9102V23.5199H33.2102V15.9099Z" fill="#15FFF1"/>
<path d="M24.9104 23.53H16.6104V32.52H24.9104V23.53Z" fill="#15FFF1"/>
<path d="M16.5998 31.1399H8.2998V49.1299H16.5998V31.1399Z" fill="#15FFF1"/>
<path d="M16.5998 89.26H8.2998V105.17H16.5998V89.26Z" fill="#15FFF1"/>
<path d="M24.9104 105.17H16.6104V121.08H24.9104V105.17Z" fill="#15FFF1"/>
<path d="M33.2102 121.09H24.9102V129.39H33.2102V121.09Z" fill="#15FFF1"/>
<path d="M8.3 49.1299H0V89.2599H8.3V49.1299Z" fill="#15FFF1"/>
<path d="M105.87 8.30005H89.2598V16.55H105.87V8.30005Z" fill="#15FFF1"/>
<path d="M114.16 16.6101H105.86V24.8601H114.16V16.6101Z" fill="#15FFF1"/>
<path d="M122.47 24.9099H114.17V33.1599H122.47V24.9099Z" fill="#15FFF1"/>
<path d="M129.39 32.52H121.78V49.13H129.39V32.52Z" fill="#15FFF1"/>
<path d="M129.39 88.5701H121.78V105.18H129.39V88.5701Z" fill="#15FFF1"/>
<path d="M121.78 104.48H114.17V121.09H121.78V104.48Z" fill="#15FFF1"/>
<path d="M114.16 120.39H105.17V129.38H114.16V120.39Z" fill="#15FFF1"/>
<path d="M137 49.1299H129.39V89.2599H137V49.1299Z" fill="#15FFF1"/>
<path d="M33.1904 153.61H24.9404V177.83H33.1904V153.61Z" fill="#15FFF1"/>
<path d="M40.7998 129.39H32.5498V153.61H40.7998V129.39Z" fill="#15FFF1"/>
<path d="M57.4197 64.3501H48.4297V73.3401H57.4197V64.3501Z" fill="#15FFF1"/>
<path d="M66.4197 72.6499H57.4297V81.6399H66.4197V72.6499Z" fill="#15FFF1"/>
<path d="M73.3396 64.3501H64.3496V73.3401H73.3396V64.3501Z" fill="#15FFF1"/>
<path d="M82.3298 72.6499H73.3398V81.6399H82.3298V72.6499Z" fill="#15FFF1"/>
<path d="M89.9402 64.3501H80.9502V73.3401H89.9402V64.3501Z" fill="#15FFF1"/>
<path d="M97.5602 24.22H80.9502V33.21H97.5602V24.22Z" fill="#15FFF1"/>
<path d="M105.86 32.52H96.8701V41.51H105.86V32.52Z" fill="#15FFF1"/>
<path d="M114.16 40.1299H105.17V56.7399H114.16V40.1299Z" fill="#15FFF1"/>
<path d="M65.0202 113.47H56.7402V137H65.0202V113.47Z" fill="#15FFF1"/>
<path d="M56.7097 97.5601H48.4297V113.48H56.7097V97.5601Z" fill="#15FFF1"/>
<path d="M89.9304 97.5601H81.6504V113.48H89.9304V97.5601Z" fill="#15FFF1"/>
<path d="M98.2302 81.6499H89.9502V97.5699H98.2302V81.6499Z" fill="#15FFF1"/>
<path d="M48.4099 81.6499H40.1299V97.5699H48.4099V81.6499Z" fill="#15FFF1"/>
<path d="M24.8904 87.1799H16.6104V105.17H24.8904V87.1799Z" fill="#0B5D58"/>
<path d="M24.8904 32.52H16.6104V50.51H24.8904V32.52Z" fill="#0B5D58"/>
<path d="M33.1902 23.53H24.9102V40.14H33.1902V23.53Z" fill="#0B5D58"/>
<path d="M41.49 16.6101H33.21V32.5201H41.49V16.6101Z" fill="#0B5D58"/>
<path d="M57.4295 16.6101H41.5195V24.2201H57.4295V16.6101Z" fill="#0B5D58"/>
<path d="M89.2599 8.30005H49.1299V16.6H89.2599V8.30005Z" fill="#0B5D58"/>
<path d="M33.1902 97.5601H24.9102V121.09H33.1902V97.5601Z" fill="#0B5D58"/>
<path d="M41.49 112.78H33.21V129.39H41.49V112.78Z" fill="#0B5D58"/>
<path d="M49.1203 121.09H40.8203V137H49.1203V121.09Z" fill="#0B5D58"/>
<path d="M24.9098 49.1299H8.2998V89.2599H24.9098V49.1299Z" fill="#0B5D58"/>
<path d="M80.9402 113.49H57.4102V121.77H80.9402V113.49Z" fill="#15FFF1"/>
<path d="M81.6199 113.47H73.3398V137H81.6199V113.47Z" fill="#15FFF1"/>
<path d="M113.45 153.61H105.2V177.83H113.45V153.61Z" fill="#15FFF1"/>
<path d="M105.87 129.39H96.9004V153.61H105.87V129.39Z" fill="#15FFF1"/>
<path d="M40.7998 177.82H32.5498V194.43H40.7998V177.82Z" fill="#15FFF1"/>
<path d="M105.84 177.82H97.5898V194.43H105.84V177.82Z" fill="#15FFF1"/>
<path d="M97.5597 177.82H48.4297V186.07H97.5597V177.82Z" fill="#0B5D58"/>
<path d="M97.5603 194.43H40.8203V202.68H97.5603V194.43Z" fill="#15FFF1"/>
<path d="M97.5603 186.13H40.8203V194.38H97.5603V186.13Z" fill="#0B5D58"/>
<path d="M49.0996 170.21H40.8496V187.51H49.0996V170.21Z" fill="#0B5D58"/>
<path d="M41.4902 153.61H33.2402V177.83H41.4902V153.61Z" fill="#0B5D58"/>
<path d="M48.4003 145.3H40.8203V161.91H48.4003V145.3Z" fill="#0B5D58"/>
</g>
<defs>
<clipPath id="clip0">
<rect width="137" height="202.68" fill="white"/>
</clipPath>
</defs>
</svg>
