<svg width="32" height="32" viewBox="0 0 32 32" fill="none" xmlns="http://www.w3.org/2000/svg">
<path d="M4.89652 6.56602L6.3448 3.31761L9.31032 2.28088L10.4138 1.79707C10.4138 1.79707 15.3724 0.967691 15.6517 1.03681C15.931 1.10592 19 1.50057 19 1.50057L21.1034 1.52061L22.5517 2.28088L25.4483 3.59407L26.4138 4.42345L27.6552 7.53363L28.2069 8.63948L28.9655 10.5747L29.5172 11.4732L30.1379 12.2335L30.5517 16.5877C30.5517 16.5877 30.4138 17.5553 30.3448 17.5553C30.2759 17.5553 30.069 18.9376 30.069 18.9376V19.6979L29.7241 20.1126L28.6207 21.3567L28.069 21.6331L27.6552 22.3243L25.3793 24.3977L24.7586 28.752L24.1379 29.7887L23.5862 29.927L12.0689 30.7563L9.93101 30.4108L8.27583 29.9961L7.58618 29.4431L5.931 23.4992L4.1379 22.1861L3.99997 21.2876L3.03445 20.6655L2.20686 19.9744L1.58617 19.6288L1.44824 17.6936L1.86204 12.0952L2.27583 11.8188L3.65514 8.98505L3.931 10.0218V8.2939L4.48273 7.53363L4.89652 6.56602Z" fill="#0B5D58"/>
<path d="M4.1383 7.94824H2.06934V11.9569H4.1383V7.94824Z" fill="#15FFF1"/>
<path d="M8.06896 23.8447H6V29.8577H8.06896V23.8447Z" fill="#15FFF1"/>
<path d="M2.06897 11.957H0V19.9744H2.06897V11.957Z" fill="#15FFF1"/>
<path d="M4.1383 19.8362H2.06934V21.9096H4.1383V19.8362Z" fill="#15FFF1"/>
<path d="M12.0004 11.957H6.1383V13.8923H4.06934V19.9053H6.1383V21.9096H12.0004V19.9053H14.0693V11.957H12.0004Z" fill="#15FFF1"/>
<path d="M6.1383 21.9094H4.06934V23.9829H6.1383V21.9094Z" fill="#15FFF1"/>
<path d="M6.1383 4.00879H4.06934V8.01747H6.1383V4.00879Z" fill="#15FFF1"/>
<path d="M10 4.00876V1.9353L6 1.9353V4.00876H10Z" fill="#15FFF1"/>
<path d="M16 2.07346V0L10 0V2.07346L16 2.07346Z" fill="#15FFF1"/>
<path d="M27.8617 11.957H29.9307V7.94835H27.8617V11.957Z" fill="#15FFF1"/>
<path d="M23.931 29.8577H26V23.8446H23.931V29.8577Z" fill="#15FFF1"/>
<path d="M29.931 19.9744H32V11.957H29.931V19.9744Z" fill="#15FFF1"/>
<path d="M27.8617 21.9094H29.9307V19.836H27.8617V21.9094Z" fill="#15FFF1"/>
<path d="M15.9996 21.9094H13.9307V25.849H15.9996H18.0686V21.9094H15.9996Z" fill="#15FFF1"/>
<path d="M19.9994 29.7887V27.9226H17.9304V29.7887H15.9994H14.0684V27.9226H11.9994V29.7887H8.06836V31.8622H11.9994H14.0684H15.9994H17.9304H19.9994H23.9304V29.7887H19.9994Z" fill="#15FFF1"/>
<path d="M25.8617 13.8923V11.957H19.9996H17.9307V19.9053H19.9996V21.9096H25.8617V19.9053H27.9307V13.8923H25.8617Z" fill="#15FFF1"/>
<path d="M25.8617 23.9829H27.9307V21.9095H25.8617V23.9829Z" fill="#15FFF1"/>
<path d="M25.8617 8.01733H27.9307V4.00865H25.8617V8.01733Z" fill="#15FFF1"/>
<path d="M26 4.00876V1.9353L22 1.9353V4.00876H26Z" fill="#15FFF1"/>
<path d="M22 2.07346V0L16 0V2.07346L22 2.07346Z" fill="#15FFF1"/>
</svg>
