<svg width="23" height="23" viewBox="0 0 23 23" fill="none" xmlns="http://www.w3.org/2000/svg">
<path d="M22.8293 15.4882V7.85616H21.3413V4.85616H19.8293V3.36816H18.3413V1.85616H15.3413V0.368164H7.70927V1.85616H4.70927V3.36816H3.19727V4.85616H1.70927V7.85616H0.197266V15.4882H1.70927V18.4882H3.19727V20.0002H4.70927V21.4882H7.70927V23.0002H15.3413V21.4882H18.3413V20.0002H19.8293V18.4882H21.3413V15.4882H22.8293ZM21.1973 15.3682H19.7093V18.3682H18.1973V19.8562H15.1973V21.3682H7.82927V19.8562H4.82927V18.3682H3.34127V15.3682H1.82927V8.00016H3.34127V5.00016H4.82927V3.48816H7.82927V2.00016H15.1973V3.48816H18.1973V5.00016H19.7093V8.00016H21.1973V15.3682ZM16.8293 9.48816V7.85616H12.1973V9.48816H16.8293ZM7.82927 9.48816V6.36816H4.70927V9.48816H7.82927ZM10.8293 12.4882V10.8562H7.70927V12.4882H10.8293ZM18.3413 14.0002V12.3682H16.7093V13.8562H15.1973V15.3682H6.34127V13.8562H4.70927V15.4882H6.19727V17.0002H7.70927V18.4882H9.19727V20.0002H13.8293V18.4882H15.3413V15.4882H16.8293V14.0002H18.3413ZM13.7093 18.3682H10.8293V17.0002H13.7093V18.3682Z" fill="#E35C5E"/>
</svg>
