<svg width="25" height="24" viewBox="0 0 25 24" fill="none" xmlns="http://www.w3.org/2000/svg">
<path d="M17.0617 8.48796V5.36796H15.4297V8.48796H17.0617ZM12.5737 8.48796V5.36796H10.9417V8.48796H12.5737ZM15.5737 11.488V9.85596H12.4297V11.488H15.5737ZM24.5737 23.488V21.856H17.0617V17.488H18.5737V16H20.0617V14.488H21.5737V13H23.0617V6.85596H21.5737V5.36796H20.0617V3.85596H18.5737V2.36796H17.0617V0.855957H9.42969V2.36796H6.42969V3.85596H4.94169V6.85596H3.42969V13H4.94169V14.488H6.42969V16H7.94169V17.488H9.42969V20.368H7.94169V21.856H0.429688V23.488H8.06169V22H9.57369V20.488H11.0617V17.368H9.57369V15.856H8.06169V14.368H6.57369V12.856H5.06169V6.99996H6.57369V3.99996H9.57369V2.48796H16.9417V3.99996H18.4297V5.48796H19.9417V6.99996H21.4297V12.856H19.9417V14.368H18.4297V15.856H16.9417V17.368H15.4297V22H16.9417V23.488H24.5737ZM15.5737 16V12.856H12.4297V16H15.5737Z" fill="#15FFF1"/>
</svg>
