<svg id="Layer_1" data-name="Layer 1" xmlns="http://www.w3.org/2000/svg" viewBox="0 0 726.64 556.55"><defs><style>.cls-1{fill:#15fff1;}</style></defs><path class="cls-1" d="M778.27,608.18v42.18H736.09v42.87H693.23v42.18H608.18v42.86H391.82V735.41H306.77V693.23h-85V650.36H179.54V608.18H136.68V519.05h42.86V476.87h42.19V434h85V391.82h85.05V349H608.18v42.86h85.05V434h42.86v42.87h42.18v42.18h42.87v89.13Zm38.78-170.09V395.22H774.87V353h-85V310.18h-85V268H395.9v42.19h-85V353H225.81v42.18H179.54V349h42.19V306.77h85V263.91h85.05V221.73H608.18v42.18h85.05v42.86h85V349h42.87v42.86h42.18v46.27ZM391.82,650.36H349.64v-85H183V604.1h42.86V647h85.05v42.18h81ZM732,480.27H689.82V438.09h-85V395.22H395.9v42.87h-85v42.18H225.81v38.78H732Zm42.86,42.86H736.09v42.19H608.18v85H566v42.87H395.9V732H604.78V689.14h85V647H732V604.1h42.86ZM519.73,565.32H438.09V604.1h81.64Z" transform="translate(-136.68 -221.73)"/></svg>