<svg id="Layer_1" data-name="Layer 1" xmlns="http://www.w3.org/2000/svg" viewBox="0 0 726.64 556.55"><defs><style>.cls-1{fill:#15fff1;}</style></defs><path class="cls-1" d="M774.87,395.22V353h-85V310.18h-85V268H395.9v42.19h-85V353H225.81v42.18H183v42.87H136.68V391.82h42.86V349h42.19V306.77h85V263.91h85.05V221.73H608.18v42.18h85.05v42.86h85V349h42.87v46.26Zm46.27,213v42.18H778.27v42.87h-85v42.18H608.18v42.86H391.82V735.41H306.77V693.23H264.59V650.36H221.73V608.18H179.54V519.05h42.19V476.87h42.86V434h42.18V391.82h85.05V349H608.18v42.86h85.05V434h85v42.87h42.87v42.18h42.18v89.13ZM604.78,693.23H434.68V650.36H391.82v-85H264.59V523.13H225.81v81H268V647h42.87v42.18h85V732H604.78Zm170.09-213h-85V438.09h-85V395.22H395.9v42.87h-85v42.18H268v38.78H774.87Zm-213,85.05H481V604.1h81Zm255.14,0H651v85H608.18v38.78h81.64V647h85V604.1h42.18Z" transform="translate(-136.68 -221.73)"/></svg>