<svg width="905" height="173" viewBox="0 0 905 173" fill="none" xmlns="http://www.w3.org/2000/svg">
<path d="M198.501 53.9253V40.8022H172.063V27.4926H145.625V14.382H80.6272V27.4957H54.189V40.8022H27.7228V53.9129H14.4073V67.2381H0V52.8685H13.3311V39.5589H26.4538V26.4327H52.892V13.1107H79.3457V0H146.654V13.1107H173.108V26.4327H199.546V39.5589H212.88V53.9378L198.501 53.9253ZM212.893 120.131V133.242H199.559V146.567H173.12V159.678H146.654V173H79.3582V159.666H52.9044V146.555H39.7848V133.23H26.4538V120.119H13.3311V92.415H26.4538V79.3044H39.7848V65.9792H52.9044V52.8685H79.3582V39.5589H146.654V52.881H173.108V65.9792H199.546V79.3044H212.88V92.415H226V120.119L212.893 120.131ZM145.597 146.555H92.6892V133.23H79.3582V79.3044H92.6892V65.9792H145.597V53.9253H80.6272V67.2505H54.189V80.3612H40.8455V93.6832H27.7228V118.86H40.8455V132.185H54.1797V145.296H80.6179V158.606H145.597V146.555ZM132.263 93.6832H107.096V118.86H132.291L132.263 93.6832ZM211.621 93.6832H198.501V80.3612H172.063V67.2505H146.654V79.3044H159.973V133.23H146.654V145.284H172.047V132.185H198.486V118.851H211.605L211.621 93.6832Z" fill="#15FFF1"/>
<path d="M425.559 120.128V133.239H412.439V146.565H399.108V159.677H372.654V173H305.358V159.677H278.904V146.565H252.466V133.239H239.331V120.128H226V92.4217H239.331V79.3101H252.454V65.984H278.892V52.8723H305.346V39.5618H372.654V52.8848H399.108V65.984H412.439V79.3101H425.559V92.4217H438.893V120.128H425.559ZM437.621 67.2553V53.9292H424.501V40.8052H398.063V27.4946H371.625V14.383H306.627V27.4977H280.189V40.8052H253.723V53.9168H239.331V39.5618H252.454V26.4346H278.892V13.1116H305.346V0H372.654V13.1116H399.108V26.4346H425.546V39.5618H438.88V52.8848H452V67.2678L437.621 67.2553ZM305.358 133.239H292.239V79.3101H305.358V67.2553H280.164V80.3669H253.723V93.6899H240.407V118.869H253.738V132.195H280.192V145.306H305.386L305.358 133.239ZM424.501 93.6899H411.167V80.3669H398.047V67.2553H371.609V53.9292H306.627V65.984H359.535V79.3101H372.654V133.239H359.535V146.565H306.627V158.617H371.597V145.294H398.035V132.195H411.167V118.859H424.498L424.501 93.6899ZM345.143 93.6899H319.75V118.869H345.143V93.6899Z" fill="#15FFF1"/>
<path d="M651.501 53.9253V40.8022H625.063V27.4926H598.625V14.382H533.627V27.4957H507.189V40.8022H480.723V53.9129H467.407V67.2381H453V52.8685H466.331V39.5589H479.454V26.4327H505.892V13.1107H532.346V0H599.654V13.1107H626.108V26.4327H652.546V39.5589H665.88V53.9378L651.501 53.9253ZM665.893 120.131V133.242H652.559V146.567H626.12V159.678H599.654V173H532.358V159.666H505.904V146.555H492.785V133.23H479.454V120.119H466.331V92.415H479.454V79.3044H492.785V65.9792H505.904V52.8685H532.358V39.5589H599.654V52.881H626.108V65.9792H652.546V79.3044H665.88V92.415H679V120.119L665.893 120.131ZM598.597 146.555H545.689V133.23H532.358V106.809H492.785V93.6832H480.723V118.86H493.845V132.185H507.18V145.296H533.618V158.606H598.597V146.555ZM651.501 80.3487H625.063V67.2505H598.625V53.9253H533.627V67.2505H507.189V80.3612H493.845V92.415H651.501V80.3487ZM585.25 106.785H560.096V118.851H585.291L585.25 106.785ZM664.608 106.785H612.973V133.205H599.654V145.259H625.047V132.185H651.486V118.851H664.605L664.608 106.785Z" fill="#15FFF1"/>
<path d="M878.559 120.128V133.239H865.439V146.565H852.108V159.677H825.654V173H758.358V159.677H731.904V146.565H705.466V133.239H692.331V120.128H679V92.4217H692.331V79.3101H705.454V65.984H731.892V52.8723H758.346V39.5618H825.654V52.8848H852.108V65.984H865.439V79.3101H878.559V92.4217H891.893V120.128H878.559ZM890.621 67.2553V53.9292H877.501V40.8052H851.063V27.4946H824.625V14.383H759.627V27.4977H733.189V40.8052H706.723V53.9168H692.331V39.5618H705.454V26.4346H731.892V13.1116H758.346V0H825.654V13.1116H852.108V26.4346H878.546V39.5618H891.88V52.8848H905V67.2678L890.621 67.2553ZM758.358 133.239H745.239V106.817H693.407V118.859H706.738V132.195H733.192V145.306H758.386L758.358 133.239ZM864.167 80.3669H851.047V67.2553H824.609V53.9292H759.627V67.2553H733.189V80.3669H706.723V92.4217H864.167V80.3669ZM877.498 93.6899H865.439V106.805H825.654V133.227H812.535V146.553H759.627V158.617H824.597V145.294H851.035V132.195H864.167V118.859H877.498V93.6899ZM798.143 106.805H772.75V118.859H798.143V106.805Z" fill="#15FFF1"/>
</svg>
