<svg width="446" height="94" viewBox="0 0 446 94" fill="none" xmlns="http://www.w3.org/2000/svg">
<path d="M38.3813 8.68359V78.7164H47.2152V8.68359H38.3813Z" fill="#15FFF1"/>
<path d="M11.9297 13.7144V83.2029H17.5979V13.7144H11.9297Z" fill="#15FFF1"/>
<path d="M172.626 47.9653V54.6166H174.627V47.9653H172.626Z" fill="#15FFF1"/>
<path d="M30.8018 59.1396V70.412H32.8041V59.1396H30.8018Z" fill="#15FFF1"/>
<path d="M144.841 70.0435V81.3158H146.842V70.0435H144.841Z" fill="#15FFF1"/>
<path d="M92.0117 0.00146484V70.0343H98.1782V0.00146484H92.0117Z" fill="#15FFF1"/>
<path d="M61.5952 46.2598V68.2493H63.9256V46.2598H61.5952Z" fill="#15FFF1"/>
<path d="M52.6914 43.2334V65.223H55.0218V43.2334H52.6914Z" fill="#0B5D58"/>
<path opacity="0.7" d="M48.8052 57.6479V64.6694H51.1355V57.6479H48.8052Z" fill="#15FFF1"/>
<path d="M48.8052 41.0166V48.0453H51.1355V41.0239L48.8052 41.0166Z" fill="#15FFF1"/>
<path d="M52.6914 33.2549V40.2763H55.0218V33.2549H52.6914Z" fill="#15FFF1"/>
<path d="M0 42.7402V49.7617H2.33037V42.7402H0Z" fill="#15FFF1"/>
<path d="M79.0264 20.8755V27.906H81.3568V20.8846L79.0264 20.8755Z" fill="#15FFF1"/>
<path d="M91.0293 9.13721V16.1586H93.3597V9.13721H91.0293Z" fill="#15FFF1"/>
<path d="M97.0293 5.99463V9.32028H99.3597V5.99463H97.0293Z" fill="#0B5D58"/>
<path d="M130.26 76.0654V83.0869H132.591V76.0654H130.26Z" fill="#0B5D58"/>
<path d="M68.8589 46.561V53.5825H71.1892V46.561H68.8589Z" fill="#15FFF1"/>
<path d="M81.9087 31.4658V42.9233H84.2391V31.4658H81.9087Z" fill="#15FFF1"/>
<path d="M57.7607 50.5088V53.8344H60.0911V50.5088H57.7607Z" fill="#15FFF1"/>
<path d="M60.5176 64.7842V71.8129H62.8479V64.7914L60.5176 64.7842Z" fill="#15FFF1"/>
<path d="M165.479 36.7817V43.8032H167.81V36.7817H165.479Z" fill="#0B5D58"/>
<path d="M175.028 25.7524V32.7739H177.359V25.7524H175.028Z" fill="#0B5D58"/>
<path opacity="0.7" d="M22.8252 65.9829V73.0043H25.1556V65.9829H22.8252Z" fill="#E35C5E"/>
<path d="M150.061 46.5591V53.5823H152.391V46.5591H150.061Z" fill="#E35C5E"/>
<path opacity="0.7" d="M165.702 17.4393V24.4589H168.032V17.4375L165.702 17.4393Z" fill="#E35C5E"/>
<path d="M41.7993 58.4282V68.7699H44.1297V58.4282H41.7993Z" fill="#E4B1B2"/>
<path d="M35.3569 38.0664V48.408H37.6873V38.0664H35.3569Z" fill="#E35C5E"/>
<path opacity="0.7" d="M75.4985 24.8218V34.2562H77.8289V24.8218H75.4985Z" fill="#E35C5E"/>
<path d="M44.0225 26.7866V39.7227H46.3528V26.7866H44.0225Z" fill="#E4B1B2"/>
<path opacity="0.7" d="M99.0498 57.5176V64.5408H101.38V57.5176H99.0498Z" fill="#15FFF1"/>
<path d="M66.8765 36.3628V43.3842H69.2068V36.3628H66.8765Z" fill="#15FFF1"/>
<path opacity="0.7" d="M114.905 60.1123V69.5359H117.236V60.1123H114.905Z" fill="#E35C5E"/>
<path d="M114.905 22.1348V35.0691H117.236V22.1348H114.905Z" fill="#E4B1B2"/>
<path d="M55.2603 44.4165V68.0626H57.5906V44.4165H55.2603Z" fill="#E35C5E"/>
<path d="M60.0947 53.8364V60.8579H62.4251V53.8364H60.0947Z" fill="#E35C5E"/>
<path opacity="0.85" d="M154 20V90H159V20H154Z" fill="#E35C5E"/>
<path opacity="0.7" d="M62.6851 71.9941V75.3216H65.0154V71.9941H62.6851Z" fill="#E35C5E"/>
<path d="M177.363 32.7759V39.7973H179.693V32.7759H177.363Z" fill="#E4B1B2"/>
<path d="M105.353 9.48145V79.3328H108.353V9.48145H105.353Z" fill="#E35C5E"/>
<path d="M66.7222 62.2114V75.3308H69.0525V62.2114H66.7222Z" fill="#E35C5E"/>
<path d="M84.5581 68.8027V78.7815H86.8885V68.8027H84.5581Z" fill="#E35C5E"/>
<path d="M99.686 25.8828V32.9042H102.016V25.8828H99.686Z" fill="#15FFF1"/>
<path opacity="0.7" d="M116.077 43.9448V47.2705H118.408V43.9448H116.077Z" fill="#E35C5E"/>
<path d="M129.441 34.1655V47.2867H131.772V34.1655H129.441Z" fill="#E35C5E"/>
<path d="M8.66699 51.3398V61.1372H10.9974V51.3398H8.66699Z" fill="#E35C5E"/>
<path d="M76.6206 46.4121V56.2094H78.951V46.4121H76.6206Z" fill="#E4B1B2"/>
<path opacity="0.7" d="M63.6372 34.7695V46.412H65.9676V34.7695H63.6372Z" fill="#E35C5E"/>
<path d="M95.1958 7.84326V14.4964H97.5262V7.84326H95.1958Z" fill="#E35C5E"/>
<path d="M88.6953 5.25586V9.69187H91.0257V5.25586H88.6953Z" fill="#E35C5E"/>
<path d="M82.7529 47.7803V54.8017H85.0833V47.7803H82.7529Z" fill="#15FFF1"/>
<path d="M87.1201 32.3584V35.6859H89.4505V32.3584H87.1201Z" fill="#0B5D58"/>
<path d="M99.4009 44.5054V51.5268H101.731V44.5054H99.4009Z" fill="#15FFF1"/>
<path d="M146.883 27.3892V40.3253H149.213V27.3892H146.883Z" fill="#E4B1B2"/>
<path opacity="0.79" d="M22.7979 21.5142V33.349H25.1282V21.5142H22.7979Z" fill="#E35C5E"/>
<path d="M91.5815 28.1348V34.7861H93.9119V28.1348H91.5815Z" fill="#E35C5E"/>
<path d="M25.1626 47.1377V51.5646H27.493V47.1377H25.1626Z" fill="#E35C5E"/>
<path d="M10.397 37.8267V47.624H12.7273V37.8267H10.397Z" fill="#E4B1B2"/>
<path d="M122.414 41.1016V64.5698H124.744V41.1016H122.414Z" fill="#E35C5E"/>
<path d="M59.6519 14.1807V84.3949H65.4849V14.1807H59.6519Z" fill="#E35C5E"/>
<path d="M109.938 38.9985V46.02H112.268V38.9985H109.938Z" fill="#15FFF1"/>
<path d="M74.0034 77.9014V84.9228H76.3338V77.9014H74.0034Z" fill="#15FFF1"/>
<path d="M166.069 66.9629V77.1231H168.4V66.9629H166.069Z" fill="#15FFF1"/>
<path d="M132.001 49.2988V68.8935H134.331V49.2988H132.001Z" fill="#15FFF1"/>
<path d="M302.714 9.71582V79.7486H311.552V9.71582H302.714Z" fill="#15FFF1"/>
<path d="M276.262 14.7471V84.2356H281.932V14.7471H276.262Z" fill="#15FFF1"/>
<path d="M405.228 28.1909V34.8422H407.228V28.1909H405.228Z" fill="#0B5D58"/>
<path d="M436.967 48.9976V55.6489H438.968V48.9976H436.967Z" fill="#15FFF1"/>
<path d="M409.171 71.0762V82.3486H411.171V71.0762H409.171Z" fill="#15FFF1"/>
<path d="M356.345 1.03418V71.067H362.512V1.03418H356.345Z" fill="#15FFF1"/>
<path d="M325.929 47.292V69.2816H328.259V47.292H325.929Z" fill="#15FFF1"/>
<path d="M317.025 44.2656V66.257H319.355V44.2656H317.025Z" fill="#0B5D58"/>
<path opacity="0.7" d="M313.139 58.6807V65.7021H315.469V58.6807H313.139Z" fill="#15FFF1"/>
<path d="M313.139 42.0576V49.079H315.469V42.0576H313.139Z" fill="#15FFF1"/>
<path d="M317.025 34.2871V41.3085H319.355V34.2871H317.025Z" fill="#15FFF1"/>
<path d="M343.361 21.9082V28.9296H345.692V21.9082H343.361Z" fill="#15FFF1"/>
<path d="M355.363 10.1709V17.2014H357.693V10.18L355.363 10.1709Z" fill="#15FFF1"/>
<path d="M361.363 7.02686V10.3543H363.693V7.02686H361.363Z" fill="#0B5D58"/>
<path d="M394.594 77.0977V84.1209H396.924V77.0977H394.594Z" fill="#0B5D58"/>
<path d="M333.192 47.5952V54.6166H335.523V47.5952H333.192Z" fill="#15FFF1"/>
<path d="M346.243 32.5V43.9556H348.573V32.5H346.243Z" fill="#15FFF1"/>
<path d="M415.68 57.3345V68.7901H418.011V57.3345H415.68Z" fill="#15FFF1"/>
<path d="M322.094 51.541V54.8685H324.424V51.541H322.094Z" fill="#15FFF1"/>
<path d="M324.852 65.8252V72.8484H327.182V65.8252H324.852Z" fill="#15FFF1"/>
<path d="M429.813 37.814V44.8372H432.143V37.814H429.813Z" fill="#0B5D58"/>
<path d="M439.364 26.7847V33.8061H441.694V26.7847H439.364Z" fill="#0B5D58"/>
<path opacity="0.7" d="M287.159 67.0176V74.039H289.489V67.0176H287.159Z" fill="#E35C5E"/>
<path d="M414.395 47.5933V54.6147H416.725V47.5933H414.395Z" fill="#E35C5E"/>
<path opacity="0.7" d="M430.042 18.4717V25.4931H432.373V18.4717H430.042Z" fill="#E35C5E"/>
<path d="M306.133 59.4609V69.8026H308.464V59.4609H306.133Z" fill="#E4B1B2"/>
<path d="M299.69 39.0933V49.4349H302.021V39.0933H299.69Z" fill="#E35C5E"/>
<path opacity="0.7" d="M339.832 25.8633V35.2869H342.162V25.8633H339.832Z" fill="#E35C5E"/>
<path d="M308.356 27.8188V40.755H310.686V27.8188H308.356Z" fill="#E4B1B2"/>
<path opacity="0.7" d="M363.383 58.5518V65.5732H365.714V58.5518H363.383Z" fill="#15FFF1"/>
<path d="M331.209 37.3968V44.4164H333.54V37.395L331.209 37.3968Z" fill="#15FFF1"/>
<path opacity="0.7" d="M379.235 61.1445V70.5699H381.565V61.1445H379.235Z" fill="#E35C5E"/>
<path d="M379.235 23.167V36.1031H381.565V23.167H379.235Z" fill="#E4B1B2"/>
<path d="M319.595 45.4434V69.0912H321.926V45.4434H319.595Z" fill="#E35C5E"/>
<path d="M324.428 54.8687V61.8901H326.759V54.8687H324.428Z" fill="#E35C5E"/>
<path opacity="0.85" d="M418.333 20.6797V90.8939H427.334V20.6797H418.333Z" fill="#E35C5E"/>
<path opacity="0.79" d="M353.696 18.6709V30.4966H356.027V18.6709H353.696Z" fill="#E35C5E"/>
<path opacity="0.7" d="M327.019 73.0229V76.3486H329.349V73.0229H327.019Z" fill="#E35C5E"/>
<path d="M441.694 33.8081V40.8295H444.025V33.8081H441.694Z" fill="#E4B1B2"/>
<path d="M369.686 10.5137V80.3651H372.68V10.5137H369.686Z" fill="#E35C5E"/>
<path d="M331.056 63.2437V76.3648H333.386V63.2437H331.056Z" fill="#E35C5E"/>
<path d="M348.892 69.8369V79.8157H351.223V69.8369H348.892Z" fill="#E35C5E"/>
<path d="M364.02 26.9155V33.9369H366.35V26.9155H364.02Z" fill="#15FFF1"/>
<path opacity="0.7" d="M380.411 44.9771V48.3045H382.741V44.9771H380.411Z" fill="#E35C5E"/>
<path d="M393.775 35.1997V48.3191H396.105V35.1997H393.775Z" fill="#E35C5E"/>
<path d="M273.001 52.374V62.1714H275.331V52.374H273.001Z" fill="#E35C5E"/>
<path d="M340.951 47.4517V57.249H343.281V47.4517H340.951Z" fill="#E4B1B2"/>
<path opacity="0.7" d="M327.967 35.8018V47.4443H330.297V35.8018H327.967Z" fill="#E35C5E"/>
<path d="M359.529 8.87744V15.5287H361.86V8.87744H359.529Z" fill="#E35C5E"/>
<path d="M353.029 6.29053V10.7247H355.36V6.29053H353.029Z" fill="#E35C5E"/>
<path d="M347.086 48.8125V55.8339H349.417V48.8125H347.086Z" fill="#15FFF1"/>
<path d="M351.456 33.3926V36.7182H353.786V33.3926H351.456Z" fill="#0B5D58"/>
<path d="M363.735 45.5376V52.559H366.065V45.5376H363.735Z" fill="#15FFF1"/>
<path d="M411.22 28.4214V41.3575H413.551V28.4214H411.22Z" fill="#E4B1B2"/>
<path opacity="0.79" d="M287.132 22.5483V34.3741H289.462V22.5483H287.132Z" fill="#E35C5E"/>
<path d="M355.915 29.1763V35.8294H358.245V29.1763H355.915Z" fill="#E35C5E"/>
<path d="M403.06 32.0791V43.7216H405.39V32.0791H403.06Z" fill="#E35C5E"/>
<path d="M274.732 38.8589V48.6562H277.063V38.8589H274.732Z" fill="#E4B1B2"/>
<path d="M386.75 42.1338V65.602H389.08V42.1338H386.75Z" fill="#E35C5E"/>
<path d="M323.985 15.2148V85.4291H329.818V15.2148H323.985Z" fill="#E35C5E"/>
<path d="M443.666 55.8359V62.8574H445.996V55.8359H443.666Z" fill="#0B5D58"/>
<path d="M374.271 40.0312V47.0527H376.602V40.0312H374.271Z" fill="#15FFF1"/>
<path d="M338.337 78.936V85.9647H340.667V78.9433L338.337 78.936Z" fill="#15FFF1"/>
<path d="M430.401 68.0024V78.1626H432.731V68.0024H430.401Z" fill="#15FFF1"/>
<path d="M396.342 50.3311V69.9257H398.672V50.3311H396.342Z" fill="#15FFF1"/>
<path d="M176.511 31.29V37.9413H174.511V31.29H176.511Z" fill="#0B5D58"/>
<path d="M286.603 63.2725V74.5448H284.602V63.2725H286.603Z" fill="#15FFF1"/>
<path d="M225.391 4.13867V74.1715H219.234V4.13867H225.391Z" fill="#15FFF1"/>
<path d="M168.724 63.2056V85.1951H166.394V63.2056H168.724Z" fill="#0B5D58"/>
<path opacity="0.7" d="M268.6 61.7798V68.8012H266.27V61.7798H268.6Z" fill="#15FFF1"/>
<path d="M264.714 37.3857V44.4162H262.383V37.3948L264.714 37.3857Z" fill="#15FFF1"/>
<path d="M317.405 46.8711V53.8925H315.074V46.8711H317.405Z" fill="#15FFF1"/>
<path d="M238.377 25.0029V32.0244H236.046V25.0029H238.377Z" fill="#15FFF1"/>
<path d="M226.375 13.2701V20.2861H224.045V13.2646L226.375 13.2701Z" fill="#15FFF1"/>
<path d="M220.374 10.1255V13.453H218.043V10.1255H220.374Z" fill="#0B5D58"/>
<path d="M187.146 80.1968V87.22H184.816V80.1968H187.146Z" fill="#0B5D58"/>
<path d="M248.545 50.6938V57.7153H246.214V50.6938H248.545Z" fill="#15FFF1"/>
<path d="M235.496 35.5986V47.0543H233.166V35.5986H235.496Z" fill="#15FFF1"/>
<path d="M166.058 60.4336V71.8892H163.728V60.4336H166.058Z" fill="#15FFF1"/>
<path d="M259.644 54.6401V57.9676H257.314V54.6401H259.644Z" fill="#15FFF1"/>
<path d="M169.511 57.7134V61.2241H167.18V57.7134H169.511Z" fill="#15FFF1"/>
<path d="M151.924 40.9131V47.9363H149.594V40.9131H151.924Z" fill="#0B5D58"/>
<path d="M167.342 50.6924V57.7138H165.012V50.6924H167.342Z" fill="#E35C5E"/>
<path opacity="0.7" d="M151.701 21.5703V28.5917H149.371V21.5703H151.701Z" fill="#E35C5E"/>
<path d="M275.605 62.5596V72.9012H273.275V62.5596H275.605Z" fill="#E4B1B2"/>
<path d="M282.048 42.1924V52.534H279.717V42.1924H282.048Z" fill="#E35C5E"/>
<path opacity="0.7" d="M241.906 28.9619V38.3855H239.576V28.9619H241.906Z" fill="#E35C5E"/>
<path d="M273.382 30.918V43.8541H271.052V30.918H273.382Z" fill="#E4B1B2"/>
<path opacity="0.7" d="M218.355 61.6523V68.6738H216.025V61.6523H218.355Z" fill="#15FFF1"/>
<path d="M250.529 40.4956V47.517H248.198V40.4956H250.529Z" fill="#15FFF1"/>
<path opacity="0.7" d="M202.504 64.2437V73.6781H200.173V64.2437H202.504Z" fill="#E35C5E"/>
<path d="M202.504 26.2729V39.2091H200.173V26.2729H202.504Z" fill="#E4B1B2"/>
<path d="M262.143 48.5425V72.1958H259.812V48.5425H262.143Z" fill="#E35C5E"/>
<path opacity="0.79" d="M228.041 21.77V33.5958H225.71V21.77H228.041Z" fill="#E35C5E"/>
<path d="M212.051 13.6128V83.4642H209.052V13.6128H212.051Z" fill="#E35C5E"/>
<path d="M250.683 66.3423V79.4635H248.353V66.3423H250.683Z" fill="#E35C5E"/>
<path d="M232.846 72.9355V82.9143H230.516V72.9355H232.846Z" fill="#E35C5E"/>
<path d="M217.717 30.0142V37.0356H215.387V30.0142H217.717Z" fill="#15FFF1"/>
<path opacity="0.7" d="M201.328 48.0757V51.4032H198.998V48.0757H201.328Z" fill="#E35C5E"/>
<path d="M187.964 38.2988V51.4182H185.633V38.2988H187.964Z" fill="#E35C5E"/>
<path d="M308.738 55.4727V65.27H306.408V55.4727H308.738Z" fill="#E35C5E"/>
<path d="M240.784 50.5508V60.3481H238.454V50.5508H240.784Z" fill="#E4B1B2"/>
<path opacity="0.7" d="M253.772 38.9009V50.5434H251.441V38.9009H253.772Z" fill="#E35C5E"/>
<path d="M222.209 11.9766V18.6279H219.879V11.9766H222.209Z" fill="#E35C5E"/>
<path d="M228.709 9.38916V13.8234H226.379V9.38916H228.709Z" fill="#E35C5E"/>
<path d="M234.65 51.9115V58.9311H232.32V51.9097L234.65 51.9115Z" fill="#15FFF1"/>
<path d="M230.283 36.4917V39.8173H227.953V36.4917H230.283Z" fill="#0B5D58"/>
<path d="M218.004 48.6367V55.6654H215.674V48.644L218.004 48.6367Z" fill="#15FFF1"/>
<path d="M170.522 31.52V44.4561H168.192V31.52H170.522Z" fill="#E4B1B2"/>
<path opacity="0.79" d="M294.607 25.6475V37.4732H292.276V25.6475H294.607Z" fill="#E35C5E"/>
<path d="M225.824 32.2603V38.9188H223.493V32.2603H225.824Z" fill="#E35C5E"/>
<path d="M178.677 35.1636V46.8061H176.346V35.1636H178.677Z" fill="#E35C5E"/>
<path d="M307.007 41.958V51.7553H304.676V41.958H307.007Z" fill="#E4B1B2"/>
<path d="M194.989 45.2329V68.7012H192.659V45.2329H194.989Z" fill="#E35C5E"/>
<path d="M246.281 14.1406V84.3549H240.447V14.1406H246.281Z" fill="#E35C5E"/>
<path d="M138.072 58.9312V65.9526H135.742V58.9312H138.072Z" fill="#0B5D58"/>
<path d="M207.465 43.1299V50.1513H205.135V43.1299H207.465Z" fill="#15FFF1"/>
<path d="M243.4 82.0346V89.0488H241.069V82.0273L243.4 82.0346Z" fill="#15FFF1"/>
<path d="M151.334 71.0962V81.2564H149.004V71.0962H151.334Z" fill="#15FFF1"/>
<path d="M185.404 53.4297V73.0244H183.073V53.4297H185.404Z" fill="#15FFF1"/>
</svg>
