<svg width="146" height="142" viewBox="0 0 146 142" fill="none" xmlns="http://www.w3.org/2000/svg">
<g clip-path="url(#clip0)">
<path d="M0 51.91H25.94V25.91H39.02V12.64H52V0H65V141.44H51.88V128.91H39V115.91H26V89.91H0V51.91Z" fill="#15FFF1"/>
<path d="M92 37.9099H78V51.9099H92V37.9099Z" fill="#15FFF1"/>
<path d="M105 50.9099H91V64.9099H105V50.9099Z" fill="#15FFF1"/>
<path d="M118 63.9099H104V77.9099H118V63.9099Z" fill="#15FFF1"/>
<path d="M131.5 50.4099H117.5V64.4099H131.5V50.4099Z" fill="#15FFF1"/>
<path d="M145.5 37.4099H131.5V51.4099H145.5V37.4099Z" fill="#15FFF1"/>
<path d="M105 76.9099H91V90.9099H105V76.9099Z" fill="#15FFF1"/>
<path d="M92 89.9099H78V103.91H92V89.9099Z" fill="#15FFF1"/>
<path d="M131 76.9099H117V90.9099H131V76.9099Z" fill="#15FFF1"/>
<path d="M144.5 90.4099H130.5V104.41H144.5V90.4099Z" fill="#15FFF1"/>
</g>
<defs>
<clipPath id="clip0">
<rect width="145.5" height="141.44" fill="white"/>
</clipPath>
</defs>
</svg>
