<svg width="34" height="34" viewBox="0 0 34 34" fill="none" xmlns="http://www.w3.org/2000/svg">
<g clip-path="url(#clip0)">
<path d="M33.9999 34H27.651V29.6625H25.3922V27.54H23.3758V25.394H21.1573V27.4373H16.9999V29.6961H12.7129V25.394H14.8488V23.2412H16.9999V21.1945H19.151V19.0451H21.2045V16.9461H23.3572V14.8018H25.4999V12.75H29.6439V16.9461H27.5685V21.1423H25.4461V23.3758H27.5988V25.4461H29.6422V27.4912H33.9999V34Z" fill="#0B5D58"/>
<path d="M19.1514 21.1943H17.0003V19.0668H14.8846V16.946H12.7133V14.773H10.7154V12.6085H8.56934V10.55H6.45528V8.43928H4.2941V6.27472H2.21875V2.1072L6.45528 2.04492V4.19601H8.50033V6.34878H10.6851V8.47463H12.8042V10.651H14.8492V12.7499H17.0003V14.8488H19.1514V16.946H21.2049V19.0449H19.1514V21.1943Z" fill="#15FFF1"/>
<path d="M2.21842 6.27485V2.10733L6.45495 2.04505V0H0V6.27485H2.21842Z" fill="#0B5D58"/>
<path d="M4.2941 6.2749H2.21875V8.45797H4.2941V6.2749Z" fill="#0B5D58"/>
<path d="M2.18809 4.08691H0.0302734V6.26998H2.18809V4.08691Z" fill="#0B5D58"/>
<path d="M6.56442 0H4.23828V2.06188H6.56442V0Z" fill="#0B5D58"/>
<path d="M6.45489 8.42773H4.26172V10.6108H6.45489V8.42773Z" fill="#0B5D58"/>
<path d="M8.60723 10.4712H6.41406V12.6543H8.60723V10.4712Z" fill="#0B5D58"/>
<path d="M10.7586 12.5161H8.56543V14.6992H10.7586V12.5161Z" fill="#0B5D58"/>
<path d="M12.8038 14.667H10.5029V16.8501H12.8038V14.667Z" fill="#0B5D58"/>
<path d="M14.9549 16.8198H12.7617V19.0029H14.9549V16.8198Z" fill="#0B5D58"/>
<path d="M16.9998 18.9712H14.8066V21.1963H16.9998V18.9712Z" fill="#0B5D58"/>
<path d="M21.1964 14.8491H19.1514V17.0002H21.1964V14.8491Z" fill="#0B5D58"/>
<path d="M19.1511 12.6963H17V14.8474H19.1511V12.6963Z" fill="#0B5D58"/>
<path d="M16.9997 10.6509H14.8486V12.802H16.9997V10.6509Z" fill="#0B5D58"/>
<path d="M14.9548 8.5H12.8037V10.6511H14.9548V8.5Z" fill="#0B5D58"/>
<path d="M12.8025 6.34912H10.6514V8.50021H12.8025V6.34912Z" fill="#0B5D58"/>
<path d="M10.6511 4.19629H8.5V6.34738H10.6511V4.19629Z" fill="#0B5D58"/>
<path d="M8.60617 2.04492H6.45508V4.19601H8.60617V2.04492Z" fill="#0B5D58"/>
</g>
<defs>
<clipPath id="clip0">
<rect width="34" height="34" fill="white"/>
</clipPath>
</defs>
</svg>
