<svg width="31" height="31" viewBox="0 0 31 31" fill="none" xmlns="http://www.w3.org/2000/svg">
<path d="M30.176 20.9842V10.8082H28.192V6.80822H26.176V4.82422H24.192V2.80822H20.192V0.824219H10.016V2.80822H6.016V4.82422H4V6.80822H2.016V10.8082H0V20.9842H2.016V24.9842H4V27.0002H6.016V28.9842H10.016V31.0002H20.192V28.9842H24.192V27.0002H26.176V24.9842H28.192V20.9842H30.176ZM28 20.8242H26.016V24.8242H24V26.8082H20V28.8242H10.176V27.0002H16.192V24.9842H18.176V20.9842H20.192V19.0002H22.176V16.8242H20V18.8082H6.176V16.8242H4V19.0002H6.016V20.9842H8V24.9842H10.016V26.8082H6.176V24.8242H4.192V20.8242H2.176V11.0002H4.192V7.00022H6.176V4.98422H10.176V3.00022H20V4.98422H24V7.00022H26.016V11.0002H28V20.8242ZM16 24.8242H14.176V20.9842H16V24.8242ZM12 24.8242H10.176V20.9842H12V24.8242ZM20.192 12.9842V10.8082H16V12.9842H20.192ZM10.176 12.9842V10.8082H6.016V12.9842H10.176ZM14.176 16.9842V14.8082H10.016V16.9842H14.176Z" fill="#E35C5E"/>
</svg>
